{
	"asset":{
		"generator":"Khronos glTF Blender I/O v4.0.44",
		"version":"2.0"
	},
	"scene":0,
	"scenes":[
		{
			"name":"Scene",
			"nodes":[
				0
			]
		}
	],
	"nodes":[
		{
			"mesh":0,
			"name":"Model"
		}
	],
	"materials":[
		{
			"doubleSided":true,
			"name":"Goblin.001",
			"pbrMetallicRoughness":{
				"baseColorTexture":{
					"index":0
				},
				"metallicFactor":0,
				"roughnessFactor":0.5870807766914368
			}
		}
	],
	"meshes":[
		{
			"name":"Object_1.001",
			"primitives":[
				{
					"attributes":{
						"POSITION":0,
						"NORMAL":1,
						"TEXCOORD_0":2
					},
					"indices":3,
					"material":0
				}
			]
		}
	],
	"textures":[
		{
			"sampler":0,
			"source":0
		}
	],
	"images":[
		{
			"mimeType":"image/png",
			"name":"Goblin_baseColor",
			"uri":"Goblin_baseColor.png"
		}
	],
	"accessors":[
		{
			"bufferView":0,
			"componentType":5126,
			"count":4400,
			"max":[
				0.3844974935054779,
				1.4478952884674072,
				0.21917849779129028
			],
			"min":[
				-0.3815057575702667,
				-0.003075772663578391,
				-0.21329301595687866
			],
			"type":"VEC3"
		},
		{
			"bufferView":1,
			"componentType":5126,
			"count":4400,
			"type":"VEC3"
		},
		{
			"bufferView":2,
			"componentType":5126,
			"count":4400,
			"type":"VEC2"
		},
		{
			"bufferView":3,
			"componentType":5123,
			"count":4458,
			"type":"SCALAR"
		}
	],
	"bufferViews":[
		{
			"buffer":0,
			"byteLength":52800,
			"byteOffset":0,
			"target":34962
		},
		{
			"buffer":0,
			"byteLength":52800,
			"byteOffset":52800,
			"target":34962
		},
		{
			"buffer":0,
			"byteLength":35200,
			"byteOffset":105600,
			"target":34962
		},
		{
			"buffer":0,
			"byteLength":8916,
			"byteOffset":140800,
			"target":34963
		}
	],
	"samplers":[
		{
			"magFilter":9729,
			"minFilter":9987
		}
	],
	"buffers":[
		{
			"byteLength":149716,
			"uri":"goblin.bin"
		}
	]
}
