{
	"asset":{
		"generator":"Khronos glTF Blender I/O v4.0.44",
		"version":"2.0"
	},
	"scene":0,
	"scenes":[
		{
			"name":"Scene",
			"nodes":[
				0
			]
		}
	],
	"nodes":[
		{
			"mesh":0,
			"name":"Tree_01"
		}
	],
	"materials":[
		{
			"doubleSided":true,
			"name":"Tree",
			"pbrMetallicRoughness":{
				"baseColorTexture":{
					"index":0
				},
				"metallicFactor":0,
				"roughnessFactor":0.5
			}
		}
	],
	"meshes":[
		{
			"name":"Icosphere.005",
			"primitives":[
				{
					"attributes":{
						"POSITION":0,
						"NORMAL":1,
						"TEXCOORD_0":2
					},
					"indices":3,
					"material":0
				}
			]
		}
	],
	"textures":[
		{
			"sampler":0,
			"source":0
		}
	],
	"images":[
		{
			"mimeType":"image/png",
			"name":"baseColor",
			"uri":"baseColor.png"
		}
	],
	"accessors":[
		{
			"bufferView":0,
			"componentType":5126,
			"count":2050,
			"max":[
				0.865563154220581,
				2.6066246032714844,
				1.060195803642273
			],
			"min":[
				-1.1672126054763794,
				-0.06312461197376251,
				-1.5684572458267212
			],
			"type":"VEC3"
		},
		{
			"bufferView":1,
			"componentType":5126,
			"count":2050,
			"type":"VEC3"
		},
		{
			"bufferView":2,
			"componentType":5126,
			"count":2050,
			"type":"VEC2"
		},
		{
			"bufferView":3,
			"componentType":5123,
			"count":2274,
			"type":"SCALAR"
		}
	],
	"bufferViews":[
		{
			"buffer":0,
			"byteLength":24600,
			"byteOffset":0,
			"target":34962
		},
		{
			"buffer":0,
			"byteLength":24600,
			"byteOffset":24600,
			"target":34962
		},
		{
			"buffer":0,
			"byteLength":16400,
			"byteOffset":49200,
			"target":34962
		},
		{
			"buffer":0,
			"byteLength":4548,
			"byteOffset":65600,
			"target":34963
		}
	],
	"samplers":[
		{
			"magFilter":9729,
			"minFilter":9987
		}
	],
	"buffers":[
		{
			"byteLength":70148,
			"uri":"Tree.bin"
		}
	]
}
