{
	"asset":{
		"generator":"Khronos glTF Blender I/O v4.0.44",
		"version":"2.0"
	},
	"scene":0,
	"scenes":[
		{
			"name":"Scene",
			"nodes":[
				0
			]
		}
	],
	"nodes":[
		{
			"mesh":0,
			"name":"Model"
		}
	],
	"materials":[
		{
			"doubleSided":true,
			"name":"Material_49",
			"pbrMetallicRoughness":{
				"baseColorTexture":{
					"index":0
				},
				"metallicFactor":0,
				"roughnessFactor":0
			}
		}
	],
	"meshes":[
		{
			"name":"node_id30_Material_49_0",
			"primitives":[
				{
					"attributes":{
						"POSITION":0,
						"NORMAL":1,
						"TEXCOORD_0":2,
						"TEXCOORD_1":3,
						"TEXCOORD_2":4,
						"TEXCOORD_3":5,
						"TEXCOORD_4":6,
						"TEXCOORD_5":7,
						"TEXCOORD_6":8,
						"TEXCOORD_7":9
					},
					"indices":10,
					"material":0
				}
			]
		}
	],
	"textures":[
		{
			"sampler":0,
			"source":0
		}
	],
	"images":[
		{
			"mimeType":"image/png",
			"name":"Material_49_baseColor",
			"uri":"Material_49_baseColor.png"
		}
	],
	"accessors":[
		{
			"bufferView":0,
			"componentType":5126,
			"count":73685,
			"max":[
				0.9039934277534485,
				4.5806498527526855,
				1.647937297821045
			],
			"min":[
				-0.8127634525299072,
				-0.0082627534866333,
				-1.7661879062652588
			],
			"type":"VEC3"
		},
		{
			"bufferView":1,
			"componentType":5126,
			"count":73685,
			"type":"VEC3"
		},
		{
			"bufferView":2,
			"componentType":5126,
			"count":73685,
			"type":"VEC2"
		},
		{
			"bufferView":3,
			"componentType":5126,
			"count":73685,
			"type":"VEC2"
		},
		{
			"bufferView":4,
			"componentType":5126,
			"count":73685,
			"type":"VEC2"
		},
		{
			"bufferView":5,
			"componentType":5126,
			"count":73685,
			"type":"VEC2"
		},
		{
			"bufferView":6,
			"componentType":5126,
			"count":73685,
			"type":"VEC2"
		},
		{
			"bufferView":7,
			"componentType":5126,
			"count":73685,
			"type":"VEC2"
		},
		{
			"bufferView":8,
			"componentType":5126,
			"count":73685,
			"type":"VEC2"
		},
		{
			"bufferView":9,
			"componentType":5126,
			"count":73685,
			"type":"VEC2"
		},
		{
			"bufferView":10,
			"componentType":5125,
			"count":245376,
			"type":"SCALAR"
		}
	],
	"bufferViews":[
		{
			"buffer":0,
			"byteLength":884220,
			"byteOffset":0,
			"target":34962
		},
		{
			"buffer":0,
			"byteLength":884220,
			"byteOffset":884220,
			"target":34962
		},
		{
			"buffer":0,
			"byteLength":589480,
			"byteOffset":1768440,
			"target":34962
		},
		{
			"buffer":0,
			"byteLength":589480,
			"byteOffset":2357920,
			"target":34962
		},
		{
			"buffer":0,
			"byteLength":589480,
			"byteOffset":2947400,
			"target":34962
		},
		{
			"buffer":0,
			"byteLength":589480,
			"byteOffset":3536880,
			"target":34962
		},
		{
			"buffer":0,
			"byteLength":589480,
			"byteOffset":4126360,
			"target":34962
		},
		{
			"buffer":0,
			"byteLength":589480,
			"byteOffset":4715840,
			"target":34962
		},
		{
			"buffer":0,
			"byteLength":589480,
			"byteOffset":5305320,
			"target":34962
		},
		{
			"buffer":0,
			"byteLength":589480,
			"byteOffset":5894800,
			"target":34962
		},
		{
			"buffer":0,
			"byteLength":981504,
			"byteOffset":6484280,
			"target":34963
		}
	],
	"samplers":[
		{
			"magFilter":9729,
			"minFilter":9987
		}
	],
	"buffers":[
		{
			"byteLength":7465784,
			"uri":"goblin.bin"
		}
	]
}
